<?xml version="1.0" encoding="utf-8"?>
<!-- Generator: Adobe Illustrator 22.0.1, SVG Export Plug-In . SVG Version: 6.00 Build 0)  -->
<svg version="1.1" id="圖層_1" xmlns="http://www.w3.org/2000/svg" xmlns:xlink="http://www.w3.org/1999/xlink" x="0px" y="0px"
	 viewBox="0 0 16 16" style="enable-background:new 0 0 16 16;" xml:space="preserve">
<style type="text/css">
	.st0{fill:#040000;}
</style>
<path class="st0" d="M14.8,13.1c-0.1-0.7-0.4-1.5-0.9-2.1c-0.4-0.5-0.8-1-0.9-1.5c-0.1-0.5-0.2-0.8-0.3-1.1
	c-0.2-0.7-0.3-1.2-0.4-2.2c0-0.1,0-0.2-0.1-0.4C12,4.2,10.8,2.9,9.3,2.5c0.2-0.3,0.3-0.6,0.3-0.9C9.5,0.7,8.8,0,8,0
	C7.1,0,6.4,0.7,6.4,1.6c0,0.3,0.1,0.6,0.3,0.9C5.1,3,3.8,4.3,3.6,6.1l0,0.1c0,0.4-0.1,0.8-0.1,1.1l0,0C3.4,7.9,3.3,8.5,3.3,9.1
	c-0.1,1-0.4,1.2-0.8,1.6c-0.1,0.1-0.3,0.3-0.5,0.4c-0.3,0.3-0.6,0.9-0.8,1.5c-0.1,0.4,0,0.8,0.2,1.2c0.2,0.3,0.6,0.5,1.1,0.5
	c0.7,0,1.5,0,2.2,0l1.3,0C6.4,15.7,7.3,16,8,16h0c0.7,0,1.6-0.3,2-1.7l2,0c0.6,0,1.2,0,1.8,0c0.3,0,0.6,0,0.9-0.3
	C14.9,13.7,14.9,13.4,14.8,13.1z M9.1,14.3c-0.2,0.6-0.6,0.8-1.1,0.8c-0.2,0-0.7,0-1.1-0.8L9.1,14.3z M6.9,13.4l-0.7,0c0,0,0,0,0,0
	l-2.3,0c-0.5,0-1,0-1.6,0c-0.2,0-0.3-0.1-0.4-0.1C2,13.2,2,13,2,12.9c0.1-0.5,0.3-0.9,0.6-1.2c1.1-1.1,1.4-1.4,1.5-2.5
	C4.2,8.6,4.2,8,4.3,7.5l0-0.1c0-0.4,0.1-0.8,0.1-1.2l0,0c0.2-1.7,1.7-3,3.5-3l0.1,0c1.7,0,3.1,1.2,3.4,2.8c0,0.1,0,0.2,0,0.3
	c0.1,1.1,0.3,1.6,0.4,2.3c0.1,0.3,0.2,0.7,0.3,1.2c0.1,0.7,0.6,1.3,1.1,1.9c0.4,0.5,0.6,1,0.7,1.6c0,0.1,0,0.2,0,0.2
	c0,0-0.1,0-0.2,0c-0.8,0-1.6,0-2.3,0L6.9,13.4z M7.3,1.6c0-0.4,0.3-0.7,0.7-0.7s0.7,0.3,0.7,0.7C8.7,2,8.4,2.3,8,2.3S7.3,2,7.3,1.6z
	"/>
</svg>
