<?xml version="1.0" encoding="utf-8"?>
<!-- Generator: Adobe Illustrator 15.1.0, SVG Export Plug-In  -->
<!DOCTYPE svg PUBLIC "-//W3C//DTD SVG 1.1//EN" "http://www.w3.org/Graphics/SVG/1.1/DTD/svg11.dtd" [
	<!ENTITY ns_flows "http://ns.adobe.com/Flows/1.0/">
]>
<svg version="1.1"
	 xmlns="http://www.w3.org/2000/svg" xmlns:xlink="http://www.w3.org/1999/xlink" xmlns:a="http://ns.adobe.com/AdobeSVGViewerExtensions/3.0/"
	 x="0px" y="0px" width="16px" height="16px" viewBox="-1.988 -1.145 16 16" enable-background="new -1.988 -1.145 16 16"
	 xml:space="preserve">
<defs>
</defs>
<path d="M1.98,12.727V0.984H0.656c-0.234,0-0.402-0.045-0.504-0.135S0,0.641,0,0.492s0.051-0.268,0.152-0.357S0.422,0,0.656,0h6.188
	c1.226,0,2.224,0.354,2.994,1.061c0.769,0.707,1.154,1.537,1.154,2.49c0,1.203-0.645,2.176-1.934,2.918
	c1.022,0.367,1.772,0.855,2.25,1.465c0.476,0.609,0.715,1.281,0.715,2.016c0,0.656-0.157,1.256-0.469,1.799
	c-0.313,0.543-0.791,1.006-1.436,1.389s-1.347,0.574-2.104,0.574H0.656c-0.234,0-0.402-0.047-0.504-0.141S0,13.359,0,13.219
	c0-0.148,0.051-0.268,0.152-0.357s0.27-0.135,0.504-0.135H1.98z M2.965,6.094h3.48c0.741,0,1.421-0.137,2.039-0.41
	C8.96,5.465,9.331,5.148,9.598,4.734C9.862,4.32,9.996,3.898,9.996,3.469c0-0.617-0.29-1.186-0.867-1.705
	C8.55,1.244,7.796,0.984,6.867,0.984H2.965V6.094z M2.965,12.727h4.98c0.633,0,1.184-0.141,1.652-0.422s0.823-0.629,1.066-1.043
	c0.241-0.414,0.363-0.844,0.363-1.289c0-0.5-0.175-0.984-0.521-1.453c-0.349-0.469-0.831-0.824-1.447-1.066
	C8.44,7.211,7.589,7.09,6.504,7.09H2.965V12.727z"/>
</svg>
