<?xml version="1.0" encoding="utf-8"?>
<!-- Generator: Adobe Illustrator 22.0.1, SVG Export Plug-In . SVG Version: 6.00 Build 0)  -->
<svg version="1.1" id="圖層_1" xmlns="http://www.w3.org/2000/svg" xmlns:xlink="http://www.w3.org/1999/xlink" x="0px" y="0px"
	 viewBox="0 0 16 16" style="enable-background:new 0 0 16 16;" xml:space="preserve">
<style type="text/css">
	.st0{fill:#040000;}
</style>
<g>
	<path class="st0" d="M10.1,5.9c-0.1-0.1-0.3-0.1-0.5,0L8,7.6L6.3,5.9C6.2,5.8,6,5.8,5.9,5.9c-0.1,0.1-0.1,0.3,0,0.5L7.5,8L5.9,9.7
		c-0.1,0.1-0.1,0.3,0,0.5c0.1,0.1,0.2,0.1,0.2,0.1c0.1,0,0.2,0,0.2-0.1L8,8.5l1.6,1.6c0.1,0.1,0.2,0.1,0.2,0.1s0.2,0,0.2-0.1
		c0.1-0.1,0.1-0.3,0-0.5L8.4,8l1.6-1.6C10.2,6.3,10.2,6.1,10.1,5.9z"/>
	<path class="st0" d="M8,2c-3.3,0-6,2.7-6,6c0,3.3,2.7,6,6,6c3.3,0,6-2.7,6-6C14,4.7,11.3,2,8,2z M8,13.4C5,13.4,2.6,11,2.6,8
		C2.6,5.1,5,2.7,8,2.7s5.3,2.4,5.3,5.3C13.3,11,10.9,13.4,8,13.4z"/>
</g>
</svg>
