<?xml version="1.0" encoding="utf-8"?>
<!-- Generator: Adobe Illustrator 22.0.1, SVG Export Plug-In . SVG Version: 6.00 Build 0)  -->
<svg version="1.1" id="圖層_1" xmlns="http://www.w3.org/2000/svg" xmlns:xlink="http://www.w3.org/1999/xlink" x="0px" y="0px"
	 viewBox="0 0 16 16" style="enable-background:new 0 0 16 16;" xml:space="preserve">
<style type="text/css">
	.st0{fill:#040000;}
</style>
<path class="st0" d="M8,0.1c-4.3,0-7.9,3.3-7.9,7.3c0,2.2,1.1,4.3,2.9,5.5v3l2.7-1.6c0.7,0.2,1.5,0.3,2.3,0.3c4.3,0,7.8-3.3,7.8-7.3
	C15.8,3.3,12.3,0.1,8,0.1z M3.9,14.4l-0.1-1.9l-0.2-0.2C2,11.1,1,9.3,1,7.4C1,3.8,4.2,1,8,1c3.8,0,7,2.9,7,6.4c0,3.5-3.1,6.4-7,6.4
	c-0.7,0-1.4-0.1-2-0.3l-0.4-0.1L3.9,14.4z"/>
</svg>
