<?xml version="1.0" encoding="utf-8"?>
<!-- Generator: Adobe Illustrator 22.0.1, SVG Export Plug-In . SVG Version: 6.00 Build 0)  -->
<svg version="1.1" id="圖層_1" xmlns="http://www.w3.org/2000/svg" xmlns:xlink="http://www.w3.org/1999/xlink" x="0px" y="0px"
	 viewBox="0 0 16 16" style="enable-background:new 0 0 16 16;" xml:space="preserve">
<style type="text/css">
	.st0{fill:none;}
</style>
<path d="M8,14.2c-0.3,0-0.3-0.3-0.3-0.4c0-0.7,0-4.7,0-4.7c0-0.9,0-1.9,0-2.8c0-0.3-0.1-0.5-0.4-0.7C6.4,5.2,5.9,4.3,6.1,3.4
	c0.2-0.9,1-1.5,1.9-1.5c0.9,0,1.7,0.7,1.9,1.5c0.2,0.9-0.3,1.8-1.1,2.2C8.4,5.7,8.3,6,8.3,6.3c0,1.9,0,3.9,0,5.8l0,1.6
	C8.3,13.8,8.3,14.2,8,14.2L8,14.2z M8,2.5c-0.7,0-1.3,0.6-1.3,1.3c0,0.7,0.6,1.3,1.3,1.3c0.4,0,0.7-0.1,0.9-0.4
	c0.2-0.3,0.4-0.6,0.4-0.9C9.3,3.1,8.7,2.5,8,2.5L8,2.5L8,2.5z"/>
<path d="M13.8,14.2c-0.3,0-0.3-0.3-0.3-0.4c0-0.5,0-0.9,0-1.4c0-0.3-0.1-0.5-0.4-0.7c-0.8-0.4-1.2-1-1.2-1.8c0-0.8,0.4-1.4,1.2-1.8
	c0.4-0.2,0.4-0.4,0.4-0.7c0-1.2,0-2.4,0-3.6v-1c0-0.2,0-0.4,0-0.6c0-0.4,0.2-0.4,0.3-0.4c0.2,0,0.3,0.1,0.3,0.4c0,0.1,0,3.4,0,3.4
	c0,0.6,0,1.2,0,1.8c0,0.4,0.1,0.6,0.4,0.7c0.8,0.3,1.2,0.9,1.2,1.8c0,0.8-0.4,1.4-1.2,1.8c-0.3,0.1-0.5,0.4-0.4,0.7
	c0,0.4,0,0.9,0,1.3C14.1,13.9,14.1,14.2,13.8,14.2L13.8,14.2z M13.8,8.7c-0.7,0-1.3,0.6-1.3,1.3c0,0.7,0.6,1.3,1.3,1.3h0
	c0.7,0,1.3-0.6,1.3-1.3C15.1,9.3,14.6,8.7,13.8,8.7L13.8,8.7z"/>
<path d="M2.2,14.1C2.1,14.1,2.1,14.1,2.2,14.1c-0.2-0.1-0.3-0.2-0.3-0.3c0-0.4,0-0.8,0-1.2l0-0.9c0-0.4,0-0.9,0-1.3
	c0-0.3-0.1-0.5-0.4-0.6C0.7,9.4,0.3,8.8,0.3,8c0-0.8,0.4-1.4,1.2-1.8c0.3-0.1,0.4-0.3,0.4-0.6c0-1.1,0-2.2,0-3.3
	c0-0.2,0-0.4,0.3-0.4c0.3,0,0.3,0.2,0.3,0.4c0,1.1,0,2.2,0,3.3c0,0.3,0.1,0.6,0.4,0.7C3.7,6.6,4.1,7.2,4.1,8c0,0.8-0.4,1.4-1.1,1.8
	c-0.4,0.2-0.5,0.4-0.5,0.8c0,1,0,2.1,0,3.1c0,0.1-0.1,0.3-0.2,0.4C2.3,14.1,2.3,14.1,2.2,14.1z M2.2,6.7C1.5,6.7,0.9,7.3,0.9,8
	c0,0.7,0.6,1.3,1.3,1.3c0.7,0,1.3-0.6,1.3-1.3c0-0.3-0.1-0.7-0.4-0.9C2.9,6.8,2.5,6.7,2.2,6.7L2.2,6.7L2.2,6.7z"/>
<rect id="SVGID_7_" x="0" y="1.6" class="st0" width="16" height="12.8"/>
</svg>
