<?xml version="1.0" encoding="utf-8"?>
<!-- Generator: Adobe Illustrator 15.1.0, SVG Export Plug-In  -->
<!DOCTYPE svg PUBLIC "-//W3C//DTD SVG 1.1//EN" "http://www.w3.org/Graphics/SVG/1.1/DTD/svg11.dtd" [
	<!ENTITY ns_flows "http://ns.adobe.com/Flows/1.0/">
]>
<svg version="1.1"
	 xmlns="http://www.w3.org/2000/svg" xmlns:xlink="http://www.w3.org/1999/xlink" xmlns:a="http://ns.adobe.com/AdobeSVGViewerExtensions/3.0/"
	 x="0px" y="0px" width="16px" height="16px" viewBox="0 -0.6 16 16" enable-background="new 0 -0.6 16 16" xml:space="preserve">
<defs>
</defs>
<path fill="#040000" d="M14.8,1.4C13.9,0.5,12.8,0,11.5,0S9.1,0.5,8.2,1.4C8.1,1.5,8.1,1.5,8.1,1.5C8,1.4,8,1.4,8,1.4
	C7.1,0.5,6,0,4.7,0C3.4,0,2.3,0.5,1.4,1.4S0,3.5,0,4.7C0,6,0.5,7.1,1.4,8l6.7,6.7L14.8,8c0.9-0.899,1.4-2.1,1.4-3.3
	C16.2,3.4,15.7,2.3,14.8,1.4z"/>
</svg>
