<?xml version="1.0" encoding="utf-8"?>
<!-- Generator: Adobe Illustrator 15.1.0, SVG Export Plug-In  -->
<!DOCTYPE svg PUBLIC "-//W3C//DTD SVG 1.1//EN" "http://www.w3.org/Graphics/SVG/1.1/DTD/svg11.dtd" [
	<!ENTITY ns_flows "http://ns.adobe.com/Flows/1.0/">
]>
<svg version="1.1"
	 xmlns="http://www.w3.org/2000/svg" xmlns:xlink="http://www.w3.org/1999/xlink" xmlns:a="http://ns.adobe.com/AdobeSVGViewerExtensions/3.0/"
	 x="0px" y="0px" width="16px" height="16px" viewBox="-2.111 -1.145 16 16" enable-background="new -2.111 -1.145 16 16"
	 xml:space="preserve">
<defs>
</defs>
<path d="M7.629,0.984L5.133,12.727h3.375c0.219,0,0.367,0.033,0.445,0.1s0.117,0.162,0.117,0.287c0,0.164-0.064,0.305-0.193,0.422
	s-0.322,0.176-0.58,0.176H0.563c-0.219,0-0.367-0.035-0.445-0.105S0,13.438,0,13.313c0-0.156,0.064-0.293,0.193-0.41
	s0.322-0.176,0.58-0.176h3.375L6.645,0.984H3.27c-0.219,0-0.367-0.033-0.445-0.1S2.707,0.719,2.707,0.586
	c0-0.156,0.064-0.293,0.193-0.41S3.223,0,3.48,0h7.723c0.227,0,0.379,0.033,0.457,0.1s0.117,0.162,0.117,0.287
	c0,0.164-0.066,0.305-0.199,0.422s-0.324,0.176-0.574,0.176H7.629z"/>
</svg>
