<?xml version="1.0" encoding="utf-8"?>
<!-- Generator: Adobe Illustrator 22.0.1, SVG Export Plug-In . SVG Version: 6.00 Build 0)  -->
<svg version="1.1" id="圖層_1" xmlns="http://www.w3.org/2000/svg" xmlns:xlink="http://www.w3.org/1999/xlink" x="0px" y="0px"
	 viewBox="0 0 16 16" style="enable-background:new 0 0 16 16;" xml:space="preserve">
<style type="text/css">
	.st0{fill:#040000;}
</style>
<path class="st0" d="M8.1,15.3L1.4,8.6C0.5,7.7,0,6.6,0,5.3c0-1.2,0.5-2.4,1.4-3.3c0.9-0.9,2-1.4,3.3-1.4s2.4,0.5,3.3,1.4
	c0,0,0,0,0.1,0.1c0,0,0,0,0.1-0.1c0.9-0.9,2-1.4,3.3-1.4s2.4,0.5,3.3,1.4c0.9,0.9,1.4,2,1.4,3.3c0,1.2-0.5,2.4-1.4,3.3L8.1,15.3z
	 M4.7,1.6c-1,0-2,0.4-2.7,1.1C1.3,3.4,0.9,4.3,0.9,5.3c0,1,0.4,2,1.1,2.7l6,6L14,8l0,0c0.7-0.7,1.1-1.7,1.1-2.7c0-1-0.4-2-1.1-2.7
	c-0.7-0.7-1.7-1.1-2.7-1.1c-1,0-2,0.4-2.7,1.1C8.6,2.8,8.4,2.9,8.3,3.1L8,3.5L7.7,3.1C7.6,2.9,7.4,2.8,7.3,2.7
	C6.6,2,5.7,1.6,4.7,1.6"/>
</svg>
