<?xml version="1.0" encoding="utf-8"?>
<!-- Generator: Adobe Illustrator 15.1.0, SVG Export Plug-In  -->
<!DOCTYPE svg PUBLIC "-//W3C//DTD SVG 1.1//EN" "http://www.w3.org/Graphics/SVG/1.1/DTD/svg11.dtd" [
	<!ENTITY ns_flows "http://ns.adobe.com/Flows/1.0/">
]>
<svg version="1.1"
	 xmlns="http://www.w3.org/2000/svg" xmlns:xlink="http://www.w3.org/1999/xlink" xmlns:a="http://ns.adobe.com/AdobeSVGViewerExtensions/3.0/"
	 x="0px" y="0px" width="16px" height="16px" viewBox="-1.457 -1.895 16 16" enable-background="new -1.457 -1.895 16 16"
	 xml:space="preserve">
<defs>
</defs>
<path d="M12.902,6.697h-8.43c-0.327,0-0.591-0.265-0.591-0.592s0.265-0.592,0.591-0.592h8.43c0.327,0,0.592,0.265,0.592,0.592
	S13.229,6.697,12.902,6.697z"/>
<path d="M12.902,1.964h-8.43c-0.327,0-0.591-0.265-0.591-0.592c0-0.327,0.265-0.591,0.591-0.591h8.43
	c0.327,0,0.592,0.265,0.592,0.591C13.494,1.699,13.229,1.964,12.902,1.964z"/>
<path d="M12.902,11.429h-8.43c-0.327,0-0.591-0.265-0.591-0.592s0.265-0.591,0.591-0.591h8.43c0.327,0,0.592,0.264,0.592,0.591
	S13.229,11.429,12.902,11.429z"/>
<path d="M0.264,2.672h1.225c0.089,0,0.162-0.027,0.205-0.071L1.785,2.49V2.399c0-0.08-0.033-0.152-0.089-0.201L1.565,2.126H1.19V0
	L0.256,0.294c-0.049,0.019-0.1,0.042-0.143,0.092L0.052,0.489v0.07c0,0.069,0.027,0.136,0.083,0.195l0.106,0.077h0.081l0.081-0.01
	l0.243-0.077v1.381H0.347c-0.085,0-0.155,0.024-0.205,0.069L0.05,2.309v0.091c0,0.079,0.033,0.151,0.081,0.193L0.264,2.672z"/>
<path d="M1.82,7.014L1.799,6.86L1.745,6.802C1.693,6.747,1.623,6.716,1.546,6.716l-0.14,0.022L1.348,6.802
	C1.33,6.822,1.314,6.843,1.303,6.87H0.864c0.14-0.131,0.295-0.282,0.466-0.451c0.145-0.142,0.244-0.248,0.3-0.319
	c0.064-0.081,0.111-0.159,0.14-0.232C1.802,5.79,1.818,5.703,1.818,5.609c0-0.215-0.087-0.408-0.258-0.572
	C1.392,4.875,1.188,4.793,0.956,4.793c-0.143,0-0.284,0.035-0.418,0.103C0.399,4.967,0.289,5.065,0.209,5.19
	C0.125,5.32,0.086,5.425,0.086,5.523l0.02,0.132l0.062,0.059l0.107,0.076h0.081c0.067,0,0.132-0.024,0.17-0.06l0.081-0.095
	L0.624,5.57c0.017-0.062,0.054-0.114,0.115-0.16c0.064-0.048,0.134-0.07,0.219-0.07c0.09,0,0.162,0.028,0.225,0.088
	c0.08,0.076,0.088,0.142,0.075,0.251C1.251,5.694,1.236,5.727,1.188,5.786C1.143,5.842,1.059,5.929,0.937,6.05
	C0.66,6.321,0.375,6.59,0.082,6.852l-0.067,0.06v0.505H1.82V7.014z"/>
<path d="M1.695,10.876c-0.035-0.052-0.076-0.1-0.124-0.143c0.025-0.028,0.048-0.058,0.068-0.089
	c0.078-0.119,0.118-0.248,0.118-0.385c0-0.208-0.081-0.39-0.241-0.542C1.36,9.575,1.162,9.501,0.93,9.501
	c-0.22,0-0.419,0.062-0.59,0.183c-0.11,0.077-0.236,0.186-0.236,0.339l0.021,0.131l0.059,0.059c0.051,0.05,0.119,0.078,0.192,0.078
	l0.088-0.007l0.048-0.028l0.071-0.061l0.021-0.025c0.029-0.035,0.071-0.063,0.125-0.085c0.062-0.025,0.13-0.038,0.201-0.038
	c0.091,0,0.161,0.023,0.21,0.068c0.063,0.06,0.07,0.108,0.07,0.144c0,0.032-0.007,0.077-0.064,0.131
	c-0.047,0.044-0.106,0.064-0.185,0.064l-0.125-0.001c-0.099,0-0.163,0.039-0.211,0.084l-0.076,0.109v0.079
	c0,0.078,0.032,0.15,0.092,0.205l0.13,0.068h0.075c0.078,0,0.156,0.018,0.234,0.052c0.07,0.032,0.124,0.076,0.16,0.13
	c0.033,0.048,0.049,0.094,0.049,0.14s-0.011,0.117-0.107,0.206c-0.075,0.07-0.169,0.104-0.286,0.104
	c-0.156,0-0.302-0.052-0.447-0.159c-0.058-0.043-0.12-0.065-0.183-0.065l-0.125,0.021L0.084,11.48C0.031,11.53,0,11.6,0,11.674
	l0.025,0.141l0.056,0.058c0.073,0.076,0.185,0.143,0.35,0.209c0.155,0.063,0.31,0.094,0.462,0.094c0.265,0,0.49-0.086,0.667-0.253
	c0.183-0.171,0.275-0.375,0.275-0.607C1.835,11.162,1.788,11.015,1.695,10.876z"/>
</svg>
