<?xml version="1.0" encoding="utf-8"?>
<!-- Generator: Adobe Illustrator 22.0.1, SVG Export Plug-In . SVG Version: 6.00 Build 0)  -->
<svg version="1.1" id="圖層_1" xmlns="http://www.w3.org/2000/svg" xmlns:xlink="http://www.w3.org/1999/xlink" x="0px" y="0px"
	 viewBox="0 0 16 16" style="enable-background:new 0 0 16 16;" xml:space="preserve">
<style type="text/css">
	.st0{fill-rule:evenodd;clip-rule:evenodd;fill:#060001;}
</style>
<path class="st0" d="M2.7,15.5c-0.4,0-0.7-0.2-1-0.5c-0.1-0.1-0.1-0.2-0.2-0.3h13.1c0.2,0,0.4-0.1,0.5-0.2c0.1-0.2,0.2-0.4,0.2-0.6
	V2.2c0.1,0.1,0.2,0.1,0.3,0.2c0.3,0.3,0.4,0.7,0.4,1.1v10.3c0,0.4-0.1,0.8-0.4,1.1c-0.3,0.3-0.6,0.5-1,0.5H2.7z M1.4,14
	c-0.4,0-0.7-0.2-1-0.5c-0.3-0.3-0.4-0.7-0.4-1.1V2.1c0-0.4,0.1-0.8,0.4-1.1c0.3-0.3,0.6-0.5,1-0.5h11.9c0.4,0,0.7,0.2,1,0.5
	c0.3,0.3,0.4,0.7,0.4,1.1v10.3c0,0.4-0.1,0.8-0.4,1.1c-0.3,0.3-0.6,0.5-1,0.5H1.4z M1.4,1.3c-0.2,0-0.4,0.1-0.5,0.2
	C0.8,1.7,0.7,1.9,0.7,2.1v8l4-4.6l3.6,3l3-2L14,9.3V2.1c0-0.2-0.1-0.4-0.2-0.6c-0.1-0.2-0.3-0.2-0.5-0.2H1.4z M9.2,5.6
	c-0.6,0-1.1-0.5-1.1-1.1c0-0.6,0.5-1.1,1.1-1.1c0.6,0,1.1,0.5,1.1,1.1C10.2,5.1,9.8,5.6,9.2,5.6z"/>
</svg>
