<?xml version="1.0" encoding="utf-8"?>
<!-- Generator: Adobe Illustrator 22.0.1, SVG Export Plug-In . SVG Version: 6.00 Build 0)  -->
<svg version="1.1" id="圖層_1" xmlns="http://www.w3.org/2000/svg" xmlns:xlink="http://www.w3.org/1999/xlink" x="0px" y="0px"
	 viewBox="0 0 16 16" style="enable-background:new 0 0 16 16;" xml:space="preserve">
<style type="text/css">
	.st0{fill:#040000;}
</style>
<g>
	<g>
		<g>
			<path class="st0" d="M15.9,15.4L11,10.6c1-1.1,1.6-2.6,1.6-4.2C12.7,2.8,9.8,0,6.3,0S0,2.8,0,6.3s2.8,6.3,6.3,6.3
				c1.6,0,3.1-0.6,4.2-1.6l4.9,4.9c0.1,0.1,0.2,0.1,0.2,0.1s0.2,0,0.2-0.1C16,15.8,16,15.6,15.9,15.4z M6.3,12
				c-3.1,0-5.7-2.5-5.7-5.7s2.5-5.7,5.7-5.7S12,3.2,12,6.3S9.5,12,6.3,12z"/>
		</g>
	</g>
</g>
</svg>
