<?xml version="1.0" encoding="utf-8"?>
<!-- Generator: Adobe Illustrator 22.0.1, SVG Export Plug-In . SVG Version: 6.00 Build 0)  -->
<svg version="1.1" id="圖層_1" xmlns="http://www.w3.org/2000/svg" xmlns:xlink="http://www.w3.org/1999/xlink" x="0px" y="0px"
	 viewBox="0 0 16 16" style="enable-background:new 0 0 16 16;" xml:space="preserve">
<style type="text/css">
	.st0{fill:#040000;}
</style>
<path class="st0" d="M9.9,3.1C9.8,3,9.7,3,9.6,3C9.5,3,9.4,3,9.3,3C9.1,3.1,9,3.3,9,3.5v2.4H7.9c-4.5,0-7.4,2.3-7.9,6.2
	c0,0.2,0,0.3,0.1,0.4c0.1,0.1,0.2,0.2,0.4,0.2c0.2,0,0.3-0.1,0.4-0.2c0.8-1.1,2.4-2.4,5.4-2.4H9v2.4c0,0.2,0.1,0.4,0.3,0.5
	C9.4,13,9.5,13,9.6,13c0.1,0,0.2,0,0.3-0.1L16,8L9.9,3.1z M6.3,9.4c-2.7,0-4.4,1-5.4,2c0.7-3,3.2-4.7,7-4.7h1.9V4l4.9,4l-5,4l0-2
	V9.4H6.3z"/>
</svg>
