<?xml version="1.0" encoding="utf-8"?>
<!-- Generator: Adobe Illustrator 15.1.0, SVG Export Plug-In  -->
<!DOCTYPE svg PUBLIC "-//W3C//DTD SVG 1.1//EN" "http://www.w3.org/Graphics/SVG/1.1/DTD/svg11.dtd" [
	<!ENTITY ns_flows "http://ns.adobe.com/Flows/1.0/">
]>
<svg version="1.1"
	 xmlns="http://www.w3.org/2000/svg" xmlns:xlink="http://www.w3.org/1999/xlink" xmlns:a="http://ns.adobe.com/AdobeSVGViewerExtensions/3.0/"
	 x="0px" y="0px" width="16px" height="16px" viewBox="-1.625 -0.793 16 16" enable-background="new -1.625 -0.793 16 16"
	 xml:space="preserve">
<defs>
</defs>
<path d="M12.055,7.731H0.696C0.312,7.731,0,7.497,0,7.207s0.312-0.524,0.696-0.524h11.358c0.382,0,0.695,0.234,0.695,0.524
	S12.437,7.731,12.055,7.731z"/>
<path d="M3.815,5.643C3.517,5.443,3.279,5.184,3.1,4.863c-0.181-0.32-0.27-0.676-0.27-1.066c0-0.758,0.32-1.416,0.961-1.975
	c0.64-0.559,1.503-0.838,2.59-0.838c1.031,0,1.865,0.262,2.501,0.785s0.975,1.113,1.014,1.77c0.008,0.211,0.057,0.363,0.146,0.457
	s0.205,0.141,0.346,0.141c0.148,0,0.268-0.051,0.357-0.152s0.135-0.27,0.135-0.504V0.973c0-0.234-0.045-0.402-0.135-0.504
	s-0.209-0.152-0.357-0.152s-0.268,0.051-0.357,0.152s-0.135,0.27-0.135,0.504v0.328C8.904,0.434,7.721,0,6.346,0
	c-1.353,0-2.44,0.371-3.264,1.113c-0.825,0.742-1.237,1.629-1.237,2.66c0,0.955,0.318,1.699,0.926,2.251h1.803
	C4.3,5.918,4.042,5.795,3.815,5.643z"/>
<path d="M10.819,8.35c-0.058,0.012-0.11,0.04-0.171,0.04H9.495c0.206,0.161,0.38,0.342,0.519,0.546
	c0.273,0.402,0.41,0.861,0.41,1.377c0,0.844-0.357,1.574-1.072,2.191S7.662,13.43,6.428,13.43c-1.235,0-2.218-0.295-2.947-0.885
	c-0.731-0.59-1.116-1.244-1.155-1.963c-0.008-0.211-0.057-0.363-0.146-0.457S1.975,9.984,1.834,9.984
	c-0.148,0-0.268,0.051-0.357,0.152s-0.135,0.273-0.135,0.516v2.719c0,0.234,0.047,0.402,0.141,0.504s0.211,0.152,0.352,0.152
	c0.148,0,0.268-0.051,0.357-0.152s0.135-0.27,0.135-0.504v-0.563c1.023,1.07,2.391,1.605,4.102,1.605
	c1.523,0,2.734-0.396,3.632-1.189s1.348-1.752,1.348-2.877c0-0.734-0.174-1.371-0.521-1.91C10.867,8.406,10.841,8.38,10.819,8.35z"
	/>
</svg>
