<?xml version="1.0" encoding="utf-8"?>
<!-- Generator: Adobe Illustrator 15.1.0, SVG Export Plug-In  -->
<!DOCTYPE svg PUBLIC "-//W3C//DTD SVG 1.1//EN" "http://www.w3.org/Graphics/SVG/1.1/DTD/svg11.dtd" [
	<!ENTITY ns_flows "http://ns.adobe.com/Flows/1.0/">
]>
<svg version="1.1"
	 xmlns="http://www.w3.org/2000/svg" xmlns:xlink="http://www.w3.org/1999/xlink" xmlns:a="http://ns.adobe.com/AdobeSVGViewerExtensions/3.0/"
	 x="0px" y="0px" width="16px" height="16px" viewBox="0 -1.365 16 16" enable-background="new 0 -1.365 16 16"
	 xml:space="preserve">
<defs>
</defs>
<path d="M8.983,6.851H2.666v5.467h1.282c0.227,0,0.389,0.044,0.488,0.131c0.098,0.087,0.147,0.202,0.147,0.346
	c0,0.136-0.049,0.249-0.147,0.34c-0.099,0.091-0.261,0.137-0.488,0.137H0.635c-0.227,0-0.39-0.046-0.488-0.137S0,12.93,0,12.794
	c0-0.144,0.049-0.259,0.147-0.346s0.261-0.131,0.488-0.131h1.078V0.953h-0.59c-0.234,0-0.401-0.043-0.499-0.13
	C0.525,0.735,0.477,0.62,0.477,0.476c0-0.144,0.049-0.259,0.147-0.346C0.722,0.043,0.889,0,1.123,0h2.824
	c0.227,0,0.389,0.043,0.488,0.13c0.098,0.087,0.147,0.202,0.147,0.346c0,0.144-0.049,0.259-0.147,0.346
	c-0.099,0.087-0.261,0.13-0.488,0.13H2.666v4.945h6.318V0.953H7.713c-0.227,0-0.389-0.043-0.488-0.13
	C7.127,0.735,7.078,0.62,7.078,0.476c0-0.144,0.047-0.259,0.142-0.346C7.314,0.043,7.479,0,7.713,0h2.824
	c0.234,0,0.401,0.043,0.499,0.13c0.099,0.087,0.147,0.202,0.147,0.346c0,0.144-0.049,0.259-0.147,0.346
	c-0.098,0.087-0.265,0.13-0.499,0.13h-0.59v11.365h1.078c0.227,0,0.389,0.044,0.487,0.131s0.147,0.202,0.147,0.346
	c0,0.136-0.049,0.249-0.147,0.34s-0.261,0.137-0.487,0.137H7.713c-0.227,0-0.389-0.046-0.488-0.137
	c-0.098-0.091-0.147-0.204-0.147-0.34c0-0.144,0.047-0.259,0.142-0.346c0.094-0.087,0.259-0.131,0.493-0.131h1.271V6.851z"/>
<path d="M15.887,11.543c-0.071-0.062-0.176-0.093-0.31-0.093L14.32,11.5l-0.05-4.547v-1.29l-0.014,0.004l-0.001-0.052l-2.01,0.634
	c-0.108,0.039-0.175,0.076-0.231,0.133c-0.052,0.069-0.078,0.146-0.078,0.228c0,0.096,0.036,0.182,0.104,0.25
	c0.067,0.069,0.15,0.105,0.24,0.105c0.045,0,0.104-0.011,0.187-0.036l0.881-0.329l0.263-0.083l0.05,4.933h-1.307
	c-0.134,0-0.238,0.031-0.31,0.094c-0.074,0.066-0.113,0.156-0.113,0.261c0,0.101,0.038,0.189,0.11,0.256
	c0.07,0.066,0.173,0.099,0.313,0.099h3.223c0.14,0,0.242-0.032,0.313-0.098c0.072-0.067,0.11-0.156,0.11-0.257
	C16,11.701,15.961,11.611,15.887,11.543z"/>
</svg>
