<?xml version="1.0" encoding="utf-8"?>
<!-- Generator: Adobe Illustrator 15.1.0, SVG Export Plug-In  -->
<!DOCTYPE svg PUBLIC "-//W3C//DTD SVG 1.1//EN" "http://www.w3.org/Graphics/SVG/1.1/DTD/svg11.dtd" [
	<!ENTITY ns_flows "http://ns.adobe.com/Flows/1.0/">
]>
<svg version="1.1"
	 xmlns="http://www.w3.org/2000/svg" xmlns:xlink="http://www.w3.org/1999/xlink" xmlns:a="http://ns.adobe.com/AdobeSVGViewerExtensions/3.0/"
	 x="0px" y="0px" width="16px" height="16px" viewBox="-1.049 -2.676 16 16" enable-background="new -1.049 -2.676 16 16"
	 xml:space="preserve">
<defs>
</defs>
<path d="M13.311,5.916H4.88c-0.327,0-0.591-0.265-0.591-0.592S4.554,4.732,4.88,4.732h8.43c0.327,0,0.592,0.265,0.592,0.592
	S13.638,5.916,13.311,5.916z"/>
<path d="M13.311,1.183H4.88c-0.327,0-0.591-0.265-0.591-0.592C4.289,0.265,4.554,0,4.88,0h8.43c0.327,0,0.592,0.265,0.592,0.591
	C13.902,0.918,13.638,1.183,13.311,1.183z"/>
<path d="M13.311,10.648H4.88c-0.327,0-0.591-0.265-0.591-0.592S4.554,9.466,4.88,9.466h8.43c0.327,0,0.592,0.264,0.592,0.591
	S13.638,10.648,13.311,10.648z"/>
<path d="M0.961,1.183h-0.37C0.265,1.183,0,0.918,0,0.591C0,0.265,0.265,0,0.592,0h0.37c0.327,0,0.591,0.265,0.591,0.591
	C1.553,0.918,1.289,1.183,0.961,1.183z"/>
<path d="M0.961,5.916h-0.37C0.265,5.916,0,5.651,0,5.324s0.265-0.592,0.592-0.592h0.37c0.327,0,0.591,0.265,0.591,0.592
	S1.289,5.916,0.961,5.916z"/>
<path d="M0.961,10.648h-0.37C0.265,10.648,0,10.384,0,10.057s0.265-0.591,0.592-0.591h0.37c0.327,0,0.591,0.264,0.591,0.591
	S1.289,10.648,0.961,10.648z"/>
</svg>
