<?xml version="1.0" encoding="utf-8"?>
<!-- Generator: Adobe Illustrator 22.0.1, SVG Export Plug-In . SVG Version: 6.00 Build 0)  -->
<svg version="1.1" id="圖層_1" xmlns="http://www.w3.org/2000/svg" xmlns:xlink="http://www.w3.org/1999/xlink" x="0px" y="0px"
	 viewBox="0 0 36 36" style="enable-background:new 0 0 36 36;" xml:space="preserve">
<style type="text/css">
	.st0{fill:url(#SVGID_1_);}
	.st1{fill:#EF9C9A;}
</style>
<g>
	<linearGradient id="SVGID_1_" gradientUnits="userSpaceOnUse" x1="6.0276" y1="6.6649" x2="32.1696" y2="31.4155">
		<stop  offset="0" style="stop-color:#3386BE"/>
		<stop  offset="1" style="stop-color:#082C44"/>
	</linearGradient>
	<path class="st0" d="M14.1,0L18,0l3.9,0C29.7,0,36,6.3,36,14.1V18v3.9V36H21.9H18h-3.9C6.3,36,0,29.7,0,21.9L0,18l0-3.9L0,0L14.1,0
		z"/>
	<polygon class="st1" points="24.8,28.3 23,16 23,16 21.2,28.3 18.2,28.3 16.2,8.5 16.2,8.5 14.5,20.8 11.5,20.8 9.8,8.5 9.7,8.5 
		9.7,20.8 8.1,20.8 8.1,7.7 11.2,7.7 13,20 13,20 14.8,7.7 17.7,7.7 19,20 19.7,27.5 19.8,27.5 21.5,15.2 24.5,15.2 26.2,27.5 
		26.3,27.5 26.3,15.2 27.9,15.2 27.9,28.3 	"/>
</g>
</svg>
