<?xml version="1.0" encoding="utf-8"?>
<!-- Generator: Adobe Illustrator 15.1.0, SVG Export Plug-In  -->
<!DOCTYPE svg PUBLIC "-//W3C//DTD SVG 1.1//EN" "http://www.w3.org/Graphics/SVG/1.1/DTD/svg11.dtd" [
	<!ENTITY ns_flows "http://ns.adobe.com/Flows/1.0/">
]>
<svg version="1.1"
	 xmlns="http://www.w3.org/2000/svg" xmlns:xlink="http://www.w3.org/1999/xlink" xmlns:a="http://ns.adobe.com/AdobeSVGViewerExtensions/3.0/"
	 x="0px" y="0px" width="41px" height="55px" viewBox="0 0 41 55" enable-background="new 0 0 41 55" xml:space="preserve">
<defs>
</defs>
<path fill-rule="evenodd" clip-rule="evenodd" fill="#394FDD" d="M40.559,9.645l-1.316,8.436c0,0-4.479,1.499-5.176,2.953
	c-0.696,1.46-3.555,27.662-3.555,27.662l-3.09,2.416c0,0-1.939,4.797-3.502,4.257c-1.564-0.534-3.186-7.055-3.186-7.055
	s-0.246-0.288-0.622-0.796c-0.383-0.516-0.91-1.259-1.472-2.178c-0.7-1.132-1.48-5.541-1.974-8.724
	c-0.3-1.937-0.492-3.417-0.492-3.417L8.315,31.55l-0.974-1.936L0.81,25.662c-1.894-9.7,0.127-21.931,0.127-21.931
	c2.136-1.674,12-4,15.262-3.706c3.068,0.273,9.415,2.404,10.189,2.671l0.083,0.024l1.087,6.172
	C32.773,7.373,40.559,9.645,40.559,9.645z"/>
<linearGradient id="SVGID_1_" gradientUnits="userSpaceOnUse" x1="-262.1543" y1="61.3936" x2="-262.1543" y2="7.1655" gradientTransform="matrix(0.9992 0.039 -0.039 0.9992 283.5572 4.0976)">
	<stop  offset="0" style="stop-color:#1F4D95"/>
	<stop  offset="0.9777" style="stop-color:#291689"/>
</linearGradient>
<path fill-rule="evenodd" clip-rule="evenodd" fill="url(#SVGID_1_)" d="M40.559,9.645l-1.316,8.436c0,0-4.479,1.499-5.176,2.953
	c-0.696,1.46-3.555,27.662-3.555,27.662l-3.09,2.416c0,0-1.939,4.797-3.502,4.257c-1.564-0.534-3.186-7.055-3.186-7.055
	s-0.246-0.288-0.622-0.796l1.6-0.757l2.896,2.572l1.346-3.505l0.762-19.516l-4.253,1.245l-4.974,5.79l-0.823,3.269
	c-0.3-1.937-0.492-3.417-0.492-3.417L8.315,31.55l-0.974-1.936L0.81,25.662l4.426,0.75l0.629-4.542l1.556,6.761l2.027,0.08
	l4.622-1.238c0,0,1.451-2.98,1.867-4.563c0.417-1.59,1.424-11.899,1.424-11.899l0.367-9.375l2.541-0.644l6.119,1.705l0.083,0.024
	l1.087,6.172C32.773,7.373,40.559,9.645,40.559,9.645z"/>
</svg>
