<?xml version="1.0" encoding="utf-8"?>
<!-- Generator: Adobe Illustrator 15.1.0, SVG Export Plug-In  -->
<!DOCTYPE svg PUBLIC "-//W3C//DTD SVG 1.1//EN" "http://www.w3.org/Graphics/SVG/1.1/DTD/svg11.dtd" [
	<!ENTITY ns_flows "http://ns.adobe.com/Flows/1.0/">
]>
<svg version="1.1"
	 xmlns="http://www.w3.org/2000/svg" xmlns:xlink="http://www.w3.org/1999/xlink" xmlns:a="http://ns.adobe.com/AdobeSVGViewerExtensions/3.0/"
	 x="0px" y="0px" width="58px" height="80px" viewBox="0 0 58 80" enable-background="new 0 0 58 80" xml:space="preserve">
<defs>
</defs>
<path fill-rule="evenodd" clip-rule="evenodd" fill="#394FDD" d="M0,13.887l1.896,12.146c0,0,6.449,2.159,7.452,4.252
	c1.003,2.103,5.119,39.83,5.119,39.83l4.449,3.479c0,0,2.792,6.906,5.043,6.128c2.252-0.769,4.587-10.157,4.587-10.157
	s0.354-0.414,0.896-1.146c0.552-0.742,1.311-1.813,2.119-3.136c1.008-1.63,2.131-7.979,2.842-12.561
	c0.432-2.789,0.709-4.921,0.709-4.921l11.315-2.374l1.402-2.787l9.405-5.691c2.727-13.967-0.184-31.577-0.184-31.577
	c-3.076-2.411-17.278-5.759-21.975-5.336C30.658,0.43,21.521,3.499,20.405,3.882l-0.119,0.035l-1.564,8.888
	C11.211,10.617,0,13.887,0,13.887z"/>
<linearGradient id="SVGID_1_" gradientUnits="userSpaceOnUse" x1="-253.2271" y1="85.7007" x2="-253.2271" y2="7.6196" gradientTransform="matrix(-0.9992 0.039 0.039 0.9992 -225.6387 3.75)">
	<stop  offset="0" style="stop-color:#1F4D95"/>
	<stop  offset="0.9777" style="stop-color:#291689"/>
</linearGradient>
<path fill-rule="evenodd" clip-rule="evenodd" fill="url(#SVGID_1_)" d="M0,13.887l1.896,12.146c0,0,6.449,2.159,7.452,4.252
	c1.003,2.103,5.119,39.83,5.119,39.83l4.449,3.479c0,0,2.792,6.906,5.043,6.128c2.252-0.769,4.587-10.157,4.587-10.157
	s0.354-0.414,0.896-1.146l-2.304-1.091l-4.169,3.705l-1.938-5.048l-1.098-28.099l6.124,1.792l7.161,8.337l1.185,4.707
	c0.432-2.789,0.709-4.921,0.709-4.921l11.315-2.374l1.402-2.787l9.405-5.691l-6.373,1.08l-0.906-6.54l-2.241,9.735l-2.918,0.114
	l-6.654-1.782c0,0-2.09-4.291-2.688-6.569c-0.601-2.289-2.051-17.134-2.051-17.134L32.875,2.355l-3.659-0.928l-8.811,2.455
	l-0.119,0.035l-1.564,8.888C11.211,10.617,0,13.887,0,13.887z"/>
</svg>
