<?xml version="1.0" encoding="utf-8"?>
<!-- Generator: Adobe Illustrator 22.0.1, SVG Export Plug-In . SVG Version: 6.00 Build 0)  -->
<svg version="1.1" id="圖層_1" xmlns="http://www.w3.org/2000/svg" xmlns:xlink="http://www.w3.org/1999/xlink" x="0px" y="0px"
	 viewBox="0 0 69.6 36" style="enable-background:new 0 0 69.6 36;" xml:space="preserve">
<style type="text/css">
	.st0{fill:url(#SVGID_1_);}
	.st1{fill:#EF9C9A;}
</style>
<g>
	<g>
		<linearGradient id="SVGID_1_" gradientUnits="userSpaceOnUse" x1="6.0276" y1="6.6649" x2="32.1696" y2="31.4155">
			<stop  offset="0" style="stop-color:#3386BE"/>
			<stop  offset="1" style="stop-color:#082C44"/>
		</linearGradient>
		<path class="st0" d="M14.1,0L18,0l3.9,0C29.7,0,36,6.3,36,14.1V18v3.9V36H21.9H18h-3.9C6.3,36,0,29.7,0,21.9L0,18l0-3.9L0,0
			L14.1,0z"/>
		<polygon class="st1" points="24.8,28.3 23,16 23,16 21.2,28.3 18.2,28.3 16.2,8.5 16.2,8.5 14.5,20.8 11.5,20.8 9.8,8.5 9.7,8.5 
			9.7,20.8 8.1,20.8 8.1,7.7 11.2,7.7 13,20 13,20 14.8,7.7 17.7,7.7 19,20 19.7,27.5 19.8,27.5 21.5,15.2 24.5,15.2 26.2,27.5 
			26.3,27.5 26.3,15.2 27.9,15.2 27.9,28.3 		"/>
	</g>
	<g>
		<g>
			<path class="st1" d="M41.7,12.6c0,0.9,0.3,1.6,0.8,2.1s1.2,0.8,2.2,0.8c0.4,0,0.8,0,1.1-0.1c0.3-0.1,0.6-0.2,0.8-0.4
				c0.2-0.2,0.4-0.4,0.5-0.6c0.1-0.2,0.2-0.5,0.3-0.7l1.3,0.4c-0.3,0.8-0.7,1.5-1.4,2c-0.7,0.5-1.6,0.8-2.7,0.8
				c-0.6,0-1.2-0.1-1.8-0.3c-0.5-0.2-1-0.5-1.4-0.9c-0.4-0.4-0.7-0.9-0.9-1.5s-0.3-1.2-0.3-1.9v-0.4c0-0.6,0.1-1.2,0.3-1.7
				c0.2-0.5,0.5-1,0.9-1.4C42,8.3,42.5,8,43,7.8c0.5-0.2,1.1-0.3,1.7-0.3c0.7,0,1.4,0.1,1.9,0.4c0.5,0.3,1,0.6,1.3,1
				s0.6,0.8,0.8,1.3c0.2,0.5,0.2,0.9,0.2,1.3v1.2H41.7z M44.7,8.8c-0.4,0-0.8,0.1-1.1,0.2c-0.3,0.1-0.6,0.3-0.9,0.5
				c-0.3,0.2-0.5,0.5-0.6,0.8c-0.2,0.3-0.3,0.6-0.3,1h5.8c0-0.4-0.1-0.7-0.3-1c-0.2-0.3-0.4-0.6-0.6-0.8c-0.3-0.2-0.6-0.4-0.9-0.5
				C45.4,8.8,45.1,8.8,44.7,8.8z"/>
			<path class="st1" d="M50.4,7.7h2.8V4h1.4v3.7h3.5V9h-3.5v5.8c0,0.4,0.2,0.5,0.5,0.5h2.5v1.3h-3c-0.4,0-0.7-0.1-1-0.4
				c-0.3-0.3-0.4-0.6-0.4-1V9h-2.8V7.7z"/>
			<path class="st1" d="M67.2,15.1H67c-0.3,0.6-0.7,1-1.2,1.3c-0.5,0.3-1,0.4-1.6,0.4c-0.6,0-1.1-0.1-1.6-0.3
				c-0.5-0.2-0.9-0.5-1.3-0.9c-0.4-0.4-0.7-0.9-0.9-1.4S60,13,60,12.3V12c0-0.7,0.1-1.4,0.3-1.9s0.5-1,0.9-1.4
				c0.4-0.4,0.8-0.7,1.3-0.9s1-0.3,1.6-0.3c0.6,0,1.2,0.1,1.7,0.4c0.5,0.3,0.9,0.7,1.2,1.3h0.2V7.7h1.4v7.1c0,0.4,0.2,0.5,0.5,0.5
				h0.5v1.3h-1c-0.4,0-0.7-0.1-1-0.4c-0.3-0.3-0.4-0.6-0.4-1V15.1z M64.3,15.5c0.4,0,0.8-0.1,1.2-0.2c0.4-0.2,0.7-0.4,0.9-0.7
				s0.4-0.6,0.6-1c0.1-0.4,0.2-0.8,0.2-1.3V12c0-0.5-0.1-0.9-0.2-1.3c-0.1-0.4-0.3-0.7-0.6-1c-0.3-0.3-0.6-0.5-0.9-0.7
				c-0.4-0.2-0.7-0.2-1.1-0.2c-0.4,0-0.8,0.1-1.2,0.2c-0.3,0.2-0.7,0.4-0.9,0.7c-0.3,0.3-0.5,0.6-0.6,1c-0.1,0.4-0.2,0.8-0.2,1.3
				v0.3c0,1,0.3,1.8,0.8,2.4C62.8,15.2,63.5,15.5,64.3,15.5z"/>
		</g>
		<g>
			<path class="st1" d="M47.5,30.2h-0.2c-0.3,0.6-0.7,1-1.2,1.3c-0.5,0.3-1,0.4-1.6,0.4c-0.6,0-1.1-0.1-1.6-0.3
				c-0.5-0.2-0.9-0.5-1.3-0.9c-0.4-0.4-0.7-0.9-0.9-1.4c-0.2-0.6-0.3-1.2-0.3-2v-0.3c0-0.7,0.1-1.4,0.3-1.9c0.2-0.6,0.5-1,0.9-1.4
				c0.4-0.4,0.8-0.7,1.3-0.9c0.5-0.2,1-0.3,1.6-0.3c0.6,0,1.2,0.1,1.7,0.4c0.5,0.3,0.9,0.7,1.2,1.3h0.2v-1.4h1.4v7.1
				c0,0.4,0.2,0.5,0.5,0.5h0.5v1.3h-1c-0.4,0-0.7-0.1-1-0.4c-0.3-0.3-0.4-0.6-0.4-1V30.2z M44.6,30.7c0.4,0,0.8-0.1,1.2-0.2
				c0.4-0.2,0.7-0.4,0.9-0.7s0.5-0.6,0.6-1c0.1-0.4,0.2-0.8,0.2-1.3v-0.2c0-0.5-0.1-0.9-0.2-1.3c-0.1-0.4-0.3-0.7-0.6-1
				c-0.3-0.3-0.6-0.5-0.9-0.7c-0.4-0.2-0.7-0.2-1.1-0.2c-0.4,0-0.8,0.1-1.2,0.2c-0.3,0.2-0.7,0.4-0.9,0.7c-0.3,0.3-0.5,0.6-0.6,1
				c-0.1,0.4-0.2,0.8-0.2,1.3v0.3c0,1,0.3,1.8,0.8,2.4C43,30.4,43.7,30.7,44.6,30.7z"/>
			<path class="st1" d="M51.8,30.5H55v-10h-3.1v-1.3h4.5v11.3h3.2v1.3h-7.9V30.5z"/>
			<path class="st1" d="M61.7,30.5h3.2v-10h-3.1v-1.3h4.5v11.3h3.2v1.3h-7.9V30.5z"/>
		</g>
	</g>
</g>
</svg>
